{"glyphs":{"\u0000":{"ha":0,"x_min":0,"x_max":0,"o":""},"\r":{"ha":314,"x_min":0,"x_max":0,"o":""}," ":{"ha":314,"x_min":0,"x_max":0,"o":""},"D":{"ha":839,"x_min":17,"x_max":742,"o":"m 242 847 q 386 896 306 896 l 506 896 q 597 877 554 896 q 672 826 640 858 q 723 752 704 794 q 742 661 742 710 l 742 236 q 723 145 742 188 q 672 71 704 103 q 597 20 640 39 q 506 1 554 1 l 294 1 q 239 13 265 1 q 192 43 213 24 q 161 89 172 63 q 150 144 150 115 l 150 661 q 135 699 150 683 q 99 714 121 714 l 17 714 l 17 896 l 99 896 q 174 883 138 896 q 242 847 211 871 m 333 183 l 506 183 q 543 199 528 183 q 558 236 558 214 l 558 661 q 543 699 558 683 q 506 714 528 714 l 386 714 q 349 699 364 714 q 333 661 333 683 l 333 183 z "},"E":{"ha":821,"x_min":13,"x_max":738,"o":"m 238 846 q 382 896 303 896 l 646 896 q 710 869 683 896 q 738 804 738 842 l 738 713 l 382 713 q 344 697 360 713 q 329 660 329 682 l 329 539 l 671 539 l 671 356 l 329 356 l 329 182 l 738 182 l 738 90 q 710 26 738 53 q 646 0 683 0 l 238 0 q 174 22 203 0 q 146 81 146 44 l 146 660 q 131 697 146 682 q 94 713 117 713 l 13 713 l 13 896 l 94 896 q 238 846 175 896 z "},"F":{"ha":826,"x_min":17,"x_max":742,"o":"m 242 846 q 386 896 307 896 l 650 896 q 715 869 688 896 q 742 804 742 842 l 742 713 l 386 713 q 349 697 364 713 q 333 660 333 682 l 333 539 l 594 539 l 594 356 l 333 356 l 333 0 l 242 0 q 177 26 204 0 q 150 90 150 53 l 150 660 q 135 697 150 682 q 99 713 121 713 l 17 713 l 17 896 l 99 896 q 242 846 179 896 z "},"G":{"ha":825,"x_min":17,"x_max":742,"o":"m 332 186 l 506 186 q 543 201 528 186 q 558 239 558 217 l 558 360 l 393 360 l 393 543 l 740 543 l 740 239 q 722 148 740 190 q 671 74 703 106 q 597 23 639 42 q 506 4 554 4 l 293 4 q 238 15 264 4 q 192 46 211 26 q 161 92 172 65 q 150 147 150 118 l 150 664 q 135 701 150 686 q 99 717 121 717 l 17 717 l 17 900 l 97 900 q 242 850 176 900 q 308 886 272 874 q 383 900 344 899 l 506 900 q 585 885 547 900 q 654 846 624 871 q 706 786 685 821 q 736 710 728 751 l 742 681 l 557 681 l 550 692 q 506 717 535 717 l 385 717 q 348 701 364 717 q 332 664 332 686 l 332 186 z "},"H":{"ha":826,"x_min":17,"x_max":742,"o":"m 333 542 l 558 542 l 558 899 l 650 899 q 715 872 688 899 q 742 807 742 844 l 742 93 q 715 29 742 56 q 650 3 688 3 l 558 3 l 558 358 l 333 358 l 333 3 l 242 3 q 177 29 204 3 q 150 93 150 56 l 150 664 l 150 665 q 124 708 150 694 q 99 715 110 715 l 17 715 l 17 899 l 99 899 q 104 897 103 899 l 110 897 l 111 897 l 115 897 l 117 897 l 122 897 q 128 896 124 896 l 133 896 l 135 896 q 139 894 136 894 l 140 894 q 142 894 142 894 q 144 893 143 893 l 146 893 q 150 892 149 893 l 151 892 q 157 890 154 892 q 161 889 160 890 l 163 889 q 165 888 164 889 q 167 888 165 888 l 168 888 q 174 886 171 886 l 174 885 q 178 883 176 885 l 179 883 q 181 883 181 883 q 183 882 182 882 l 185 881 q 189 879 188 881 l 190 879 l 194 878 l 196 876 l 201 874 l 204 872 l 207 871 l 208 869 l 214 868 l 217 865 l 222 863 l 224 863 q 226 860 224 860 l 228 860 q 231 857 231 857 l 232 856 q 236 853 233 856 q 240 850 239 851 q 244 847 242 849 l 247 844 l 250 842 l 254 838 q 258 835 256 838 q 314 756 294 801 q 333 663 333 711 l 333 542 z "},"I":{"ha":415,"x_min":0,"x_max":317,"o":"m 82 892 l 86 892 l 88 892 q 90 891 89 892 q 93 890 92 890 l 99 890 l 100 890 l 106 890 q 108 890 107 890 q 111 889 110 889 l 117 889 q 122 888 119 888 l 124 888 q 126 887 125 888 q 128 886 126 886 l 129 886 q 133 885 132 886 l 135 885 q 139 883 138 885 l 140 883 q 144 882 143 883 l 146 882 q 148 881 147 882 q 150 881 149 881 l 151 881 q 157 879 153 879 l 157 878 q 161 876 160 878 l 163 876 q 165 876 164 876 q 167 875 165 875 l 168 875 q 170 874 169 874 q 172 872 171 874 l 174 872 l 176 871 l 179 869 l 182 868 l 188 865 l 190 864 l 192 864 l 197 861 l 200 858 l 204 856 l 206 856 q 210 853 208 853 q 214 850 213 850 l 215 849 q 218 847 218 847 l 219 846 q 224 843 222 844 q 228 840 225 842 l 232 836 l 233 835 l 238 831 q 242 828 239 831 q 297 749 278 794 q 317 656 317 704 l 317 -4 l 225 -4 q 160 22 188 -4 q 133 88 133 49 l 133 656 l 133 657 l 133 658 q 107 701 133 688 q 82 708 93 708 l 0 708 l 0 892 l 82 892 z "},"J":{"ha":635,"x_min":4,"x_max":538,"o":"m 356 182 l 356 661 l 356 663 q 328 706 353 693 q 303 713 317 713 l 222 713 l 222 896 l 303 896 l 308 896 q 312 895 311 896 q 315 894 313 894 l 321 894 l 326 894 l 328 894 q 330 894 329 894 q 333 893 331 893 l 339 893 q 343 892 340 892 l 344 892 q 347 891 346 892 q 350 890 347 890 q 356 889 354 890 q 361 888 360 889 q 367 886 365 888 l 368 886 q 370 885 369 886 q 372 885 371 885 l 374 885 q 378 883 375 883 l 379 882 q 383 881 382 882 l 385 881 q 387 880 386 881 q 389 879 388 879 l 390 879 l 393 876 l 396 876 l 399 875 l 404 872 l 408 869 l 411 868 l 414 868 l 418 865 l 421 863 l 426 860 l 428 860 q 432 857 431 857 q 436 854 435 854 l 436 853 q 440 850 438 853 q 444 847 443 849 q 449 844 446 846 l 453 840 l 456 839 l 460 835 q 463 832 463 835 q 518 753 499 799 q 538 660 538 708 l 538 143 q 526 88 538 114 q 496 42 515 61 q 450 11 476 22 q 394 0 424 0 l 239 0 q 148 19 190 0 q 74 69 106 38 q 23 144 42 101 q 4 235 4 186 l 4 406 l 186 406 l 186 235 q 201 198 186 214 q 239 182 217 182 l 356 182 z "},"K":{"ha":840,"x_min":6,"x_max":754,"o":"m 322 615 l 531 896 l 754 896 l 421 447 l 754 0 l 531 0 l 322 279 l 322 0 l 231 0 q 167 26 193 0 q 140 92 140 53 l 140 660 l 140 661 l 140 663 q 113 706 138 692 q 88 713 99 713 l 6 713 l 6 896 l 88 896 l 93 896 q 97 895 96 896 q 100 894 97 894 l 106 894 l 111 894 q 115 894 114 894 q 117 893 115 893 l 118 893 l 122 893 l 124 893 q 128 892 125 892 l 129 892 q 131 891 131 892 q 133 890 132 890 l 135 890 q 140 889 138 890 q 146 888 144 889 q 151 886 150 888 l 153 886 q 155 885 154 886 q 157 885 156 885 l 158 885 q 163 883 160 883 l 164 882 q 168 881 167 882 l 169 881 q 172 879 172 879 l 174 879 q 176 878 175 878 q 178 876 176 878 l 181 876 l 183 875 l 185 874 l 189 872 l 193 869 l 196 868 l 199 868 l 203 865 l 206 863 l 211 860 l 213 860 l 215 857 l 217 857 q 221 854 219 854 l 221 853 q 223 852 222 853 q 225 851 224 851 l 225 850 q 229 847 228 849 q 233 844 231 846 l 236 842 l 240 839 q 242 837 242 838 q 244 835 242 836 q 247 832 244 835 q 303 753 283 799 q 322 660 322 708 l 322 615 z "},"L":{"ha":738,"x_min":46,"x_max":771,"o":"m 363 182 l 771 182 l 771 92 q 744 26 771 53 q 679 0 717 0 l 271 0 q 206 26 233 0 q 179 92 179 53 l 179 660 l 179 661 l 179 663 q 153 706 179 692 q 128 713 139 713 l 46 713 l 46 896 l 128 896 l 133 896 q 136 895 135 896 q 139 894 138 894 l 140 894 l 144 894 l 146 894 l 151 894 q 154 894 153 894 q 157 893 156 893 l 163 893 l 164 893 q 168 892 165 892 l 169 892 q 172 891 171 892 q 174 890 172 890 l 175 890 q 179 889 178 890 l 181 889 q 186 888 183 889 q 190 886 189 888 l 192 886 q 194 885 193 886 q 196 885 194 885 l 197 885 q 203 883 200 883 l 203 882 q 207 881 206 882 l 208 881 q 210 880 210 881 q 213 879 211 879 l 214 879 q 216 878 215 878 q 218 876 217 878 l 219 876 l 224 875 l 228 872 l 233 869 l 238 868 l 243 865 l 246 863 l 251 860 l 253 860 q 256 857 253 857 l 257 857 q 260 854 260 854 l 261 853 q 265 850 263 853 q 269 847 268 849 q 274 844 271 846 l 276 842 l 279 839 l 283 835 q 288 832 285 835 q 343 753 324 799 q 363 660 363 708 l 363 182 z "},"M":{"ha":1238,"x_min":8,"x_max":1140,"o":"m 571 883 l 571 885 l 593 875 q 596 874 594 874 q 599 872 597 874 l 600 872 l 621 863 l 619 861 q 631 853 626 857 q 642 846 636 850 q 786 894 706 894 l 906 894 q 997 876 954 894 q 1071 825 1039 857 q 1122 751 1103 793 q 1140 660 1140 708 l 1140 92 q 1114 26 1140 53 q 1050 0 1088 0 l 958 0 l 958 660 q 943 697 958 682 q 906 713 928 713 l 786 713 q 749 697 764 713 q 733 660 733 682 l 733 0 l 550 0 l 550 661 l 550 663 q 524 706 550 692 q 499 711 513 711 l 417 711 l 417 713 l 378 713 q 340 697 356 713 q 325 660 325 682 l 325 0 l 233 0 q 169 26 196 0 q 143 92 143 53 l 143 660 q 128 697 143 682 q 92 711 113 711 l 8 711 l 8 894 l 90 894 q 233 846 172 894 q 378 894 297 894 l 500 894 l 503 894 l 506 894 l 510 894 l 511 894 l 515 894 l 517 894 l 521 894 l 522 893 l 528 893 l 529 893 q 533 892 532 893 l 539 892 l 540 892 l 544 890 l 547 890 l 550 889 l 553 889 l 558 888 l 560 886 q 564 885 563 886 l 565 885 q 569 883 568 885 l 571 883 z "},"N":{"ha":850,"x_min":28,"x_max":753,"o":"m 253 846 q 397 894 317 894 l 517 894 q 608 876 565 894 q 683 825 651 857 q 734 751 715 793 q 753 660 753 708 l 753 92 q 726 26 753 53 q 661 0 699 0 l 569 0 l 569 39 l 569 660 q 554 697 569 682 q 517 713 539 713 l 397 713 q 360 697 375 713 q 344 660 344 682 l 344 24 l 344 0 l 253 0 q 188 26 215 0 q 161 92 161 53 l 161 660 q 147 697 161 682 q 111 711 132 711 l 28 711 l 28 894 l 110 894 q 185 882 149 894 q 253 846 222 869 z "},"O":{"ha":831,"x_min":8,"x_max":733,"o":"m 233 846 q 243 852 239 849 q 253 858 247 856 l 254 860 q 257 861 256 861 l 258 863 q 260 863 260 863 q 263 864 261 864 l 263 865 q 265 866 264 865 q 267 867 265 867 l 272 869 l 275 871 l 278 872 l 282 875 l 285 876 l 290 878 l 293 879 l 296 881 l 299 881 l 303 883 l 308 885 q 313 886 311 885 l 314 886 q 316 887 315 886 q 318 888 317 888 l 319 888 q 322 888 321 888 q 324 889 322 889 l 325 889 q 329 890 328 889 l 331 890 l 336 890 l 336 892 l 342 892 q 344 892 343 892 q 347 893 346 893 l 353 893 l 354 893 q 356 894 356 893 q 358 894 357 894 l 360 894 l 365 894 l 372 894 l 371 894 q 434 895 403 896 q 497 894 465 894 q 589 876 546 894 q 664 825 632 857 q 715 751 696 793 q 733 660 733 708 l 733 235 q 715 144 733 186 q 664 69 696 101 q 589 19 632 38 q 497 0 546 0 l 378 0 q 286 19 329 0 q 211 69 243 38 q 160 144 179 101 q 142 235 142 186 l 142 660 q 127 696 142 681 q 92 711 113 711 l 8 711 l 8 894 l 90 894 q 166 882 129 894 q 233 846 203 869 m 497 182 q 535 197 519 182 q 550 235 550 213 l 550 660 q 535 697 550 682 q 497 713 519 713 q 456 714 476 713 q 413 714 435 715 q 383 712 399 714 q 355 704 368 710 q 333 688 342 699 q 325 660 325 678 l 325 235 q 340 197 325 213 q 378 182 356 182 l 497 182 z "},"P":{"ha":818,"x_min":10,"x_max":735,"o":"m 235 846 q 378 894 299 894 l 499 894 q 590 876 547 894 q 665 825 633 857 q 716 751 697 793 q 735 660 735 708 l 735 592 q 716 500 735 543 q 665 425 697 457 q 590 374 633 393 q 499 356 547 356 l 326 356 l 326 24 l 326 0 l 235 0 q 170 26 197 0 q 143 92 143 53 l 143 660 q 128 697 143 682 q 93 711 114 711 l 10 711 l 10 894 l 92 894 q 167 882 131 894 q 235 846 204 869 m 326 539 l 499 539 q 536 554 521 539 q 551 592 551 569 l 551 660 q 536 697 551 682 q 499 713 521 713 l 379 713 q 342 697 357 713 q 326 660 326 682 l 326 539 z "},"Q":{"ha":825,"x_min":11,"x_max":742,"o":"m 238 846 q 383 894 301 894 l 504 894 q 596 876 553 894 q 672 825 639 857 q 723 750 704 793 q 742 658 742 707 l 742 229 q 717 125 742 174 q 650 43 693 76 l 710 -58 l 550 -150 l 467 -7 l 383 -7 q 291 12 335 -7 q 215 63 247 31 q 165 138 183 94 q 146 229 146 181 l 146 647 l 146 658 q 131 694 146 679 q 94 710 117 710 l 11 710 l 11 894 l 93 894 q 170 882 133 894 q 238 846 207 869 m 554 211 q 557 229 557 222 l 557 658 q 542 696 557 681 q 504 711 526 711 l 383 711 q 346 696 361 711 q 331 658 331 681 l 331 229 q 357 183 331 199 l 332 226 l 492 318 l 554 211 z "},"R":{"ha":836,"x_min":8,"x_max":739,"o":"m 328 351 l 328 17 l 328 -7 l 235 -7 q 170 19 197 -7 q 143 85 143 46 l 143 658 q 128 694 143 679 q 92 710 114 710 l 8 710 l 8 894 l 90 894 q 167 882 131 894 q 235 846 204 869 q 379 894 299 894 l 381 894 l 501 894 q 593 876 550 894 q 669 825 636 857 q 720 750 701 793 q 739 658 739 707 l 739 589 q 689 443 739 508 q 739 299 739 381 l 739 85 q 712 19 739 46 q 647 -7 685 -7 l 554 -7 l 554 17 l 554 299 q 539 336 554 321 q 501 351 524 351 l 328 351 m 328 536 l 501 536 q 539 551 524 536 q 554 589 554 567 l 554 658 q 539 696 554 681 q 501 711 524 711 l 381 711 q 343 696 358 711 q 328 658 328 681 l 328 536 z "},"S":{"ha":831,"x_min":3,"x_max":733,"o":"m 229 847 q 375 896 293 896 l 496 896 q 588 877 544 896 q 663 826 631 858 q 715 751 696 794 q 733 660 733 708 l 733 600 l 549 600 l 549 660 q 533 697 549 682 q 496 713 518 713 l 375 713 q 338 697 353 713 q 322 660 322 682 l 322 590 q 338 553 322 568 q 375 538 353 538 l 496 538 q 588 519 544 538 q 663 467 631 500 q 715 392 696 435 q 733 300 733 349 l 733 231 q 715 139 733 182 q 663 64 696 96 q 588 13 631 32 q 496 -6 544 -6 l 364 -6 q 272 13 315 -6 q 196 64 228 32 q 145 139 164 96 q 126 231 126 182 l 126 290 l 311 290 l 311 231 q 326 193 311 208 q 364 178 342 178 l 496 178 q 533 193 518 178 q 549 231 549 208 l 549 300 q 533 338 549 322 q 496 353 518 353 l 375 353 q 283 372 326 353 q 207 422 239 390 q 156 498 175 454 q 138 590 138 542 l 138 661 l 138 663 q 110 706 135 693 q 85 713 99 713 l 3 713 l 3 896 l 85 896 l 90 896 l 97 896 l 103 896 l 108 896 l 110 896 q 115 894 111 894 q 121 893 118 894 l 126 893 l 128 893 q 132 892 129 892 l 133 892 q 135 891 135 892 q 138 890 136 890 l 139 890 q 141 890 140 890 q 143 889 142 889 l 144 889 q 147 888 146 889 q 149 888 147 888 l 150 888 q 152 887 151 888 q 154 886 153 886 l 156 886 q 158 885 157 885 q 160 883 158 885 l 161 883 q 165 882 164 883 l 167 882 q 171 881 168 881 l 172 879 q 176 878 175 879 l 178 878 l 183 875 l 189 872 l 192 871 l 196 868 l 201 865 l 204 864 l 210 861 l 211 860 q 213 859 213 860 q 214 858 213 858 l 215 857 q 219 854 217 857 q 222 853 221 853 q 224 851 222 853 q 229 847 226 850 z "},"T":{"ha":700,"x_min":7,"x_max":601,"o":"m 213 713 l 7 713 l 7 804 q 33 869 7 843 q 99 896 60 896 l 510 896 q 575 869 549 896 q 601 804 601 843 l 601 713 l 396 713 l 396 -6 l 304 -6 q 239 21 265 -6 q 213 86 213 47 l 213 713 z "},"U":{"ha":833,"x_min":7,"x_max":732,"o":"m 732 235 q 713 144 732 186 q 663 69 694 101 q 588 19 631 38 q 496 0 544 0 l 376 0 q 285 19 328 0 q 210 69 242 38 q 159 144 178 101 q 140 235 140 186 l 140 660 l 140 661 l 140 663 q 114 706 140 692 q 89 713 100 713 l 7 713 l 7 896 l 89 896 l 94 896 q 101 894 96 894 l 100 894 l 106 894 l 107 894 l 113 894 q 115 894 114 894 q 118 893 117 893 l 124 893 l 125 893 q 129 892 126 892 l 131 892 q 133 891 132 892 q 135 890 133 890 l 136 890 q 140 889 139 890 l 142 889 q 146 888 144 889 l 147 888 q 153 886 150 888 q 155 885 154 886 q 157 885 156 885 l 158 885 q 164 883 161 883 l 164 882 q 168 881 167 882 l 171 881 q 174 879 172 879 l 175 879 q 177 878 176 878 q 179 876 178 878 l 181 876 l 186 874 l 192 871 l 194 869 l 197 868 l 199 868 l 204 865 l 207 863 l 213 860 l 214 860 q 217 857 214 857 l 218 857 q 221 854 221 854 l 222 853 q 226 850 224 853 q 231 847 229 849 q 235 844 232 846 l 238 842 l 239 840 l 240 839 l 244 835 q 247 833 246 833 q 249 832 247 833 q 304 753 285 799 q 324 660 324 708 l 324 235 q 339 197 324 213 q 376 182 354 182 l 496 182 q 533 197 518 182 q 549 235 549 213 l 549 850 l 549 896 l 640 896 q 705 869 678 896 q 732 804 732 842 l 732 235 z "},"V":{"ha":818,"x_min":7,"x_max":732,"o":"m 324 660 l 324 379 q 333 322 324 351 q 354 269 343 293 q 368 247 358 261 q 390 217 378 232 q 414 192 401 203 q 436 182 426 182 l 438 182 q 460 194 449 183 q 484 218 472 204 q 505 246 496 232 q 518 269 514 260 q 540 322 531 293 q 549 379 549 351 l 549 896 l 640 896 q 705 869 678 896 q 732 804 732 842 l 732 379 q 710 256 732 322 q 648 133 688 190 q 554 38 608 76 q 436 0 500 0 q 318 38 372 0 q 224 133 264 76 q 163 256 185 190 q 140 379 140 322 l 140 660 l 140 661 l 140 663 q 114 706 140 692 q 89 713 100 713 l 7 713 l 7 896 l 89 896 l 94 896 q 101 894 96 894 l 100 894 l 106 894 l 107 894 l 113 894 q 115 894 114 894 q 118 893 117 893 l 124 893 l 125 893 q 129 892 126 892 l 131 892 q 133 891 132 892 q 135 890 133 890 l 136 890 q 140 889 139 890 l 142 889 q 146 888 144 889 l 147 888 q 153 886 150 888 q 155 885 154 886 q 157 885 156 885 l 158 885 q 164 883 160 883 q 166 882 165 882 q 168 881 167 882 l 171 881 q 174 879 172 879 l 175 879 q 177 878 176 878 q 179 876 178 878 l 181 876 l 186 874 l 192 871 l 194 869 l 199 868 l 204 865 l 207 863 l 213 860 l 214 860 q 217 857 214 857 l 218 857 q 221 854 221 854 l 222 853 q 226 850 224 853 q 231 847 229 849 q 235 844 232 846 l 238 842 l 239 840 l 240 839 q 244 836 243 836 l 244 835 q 249 832 246 835 q 304 753 285 799 q 324 660 324 708 z "},"W":{"ha":1247,"x_min":14,"x_max":1147,"o":"m 647 122 q 559 36 611 72 q 443 0 507 0 q 325 38 379 0 q 232 133 271 76 q 171 256 193 190 q 149 379 149 322 l 149 660 l 149 661 l 147 663 q 121 706 147 692 q 96 713 107 713 l 14 713 l 14 896 l 96 896 l 101 896 q 108 894 104 894 l 114 894 l 119 894 q 123 894 122 894 q 125 893 124 893 l 126 893 l 131 893 l 132 893 q 136 892 133 892 l 138 892 q 140 891 139 892 q 142 890 140 890 l 143 890 q 147 889 146 890 l 149 889 q 153 888 151 889 l 154 888 q 160 886 157 888 q 163 885 161 886 q 165 885 164 885 l 167 885 q 171 883 168 883 q 173 882 172 882 q 175 881 174 882 l 178 881 q 179 880 179 881 q 181 879 179 879 l 182 879 q 184 878 183 878 q 186 876 185 878 l 188 876 l 193 874 l 199 871 l 201 869 l 204 868 l 206 868 l 211 865 l 214 863 l 219 860 l 221 860 q 224 857 224 857 l 225 857 q 229 854 228 854 l 229 853 q 233 850 231 853 q 238 847 236 849 q 242 844 239 846 l 244 842 l 246 840 l 247 839 q 251 836 250 836 l 251 835 q 256 832 253 835 q 311 753 292 799 q 331 660 331 708 l 331 379 q 340 322 331 351 q 361 269 350 293 q 375 247 365 261 q 397 217 385 232 q 421 192 408 203 q 443 182 433 182 l 444 182 q 467 194 456 183 q 491 218 479 204 q 512 246 503 232 q 525 269 521 260 q 547 322 538 293 q 556 379 556 351 l 556 896 l 739 896 l 739 379 q 748 322 739 351 q 769 269 757 293 q 783 247 774 261 q 805 217 793 232 q 829 192 817 203 q 851 182 842 182 l 853 182 q 876 194 864 183 q 899 218 888 204 q 919 246 910 232 q 933 269 928 260 q 954 322 944 293 q 964 379 964 351 l 964 896 l 1056 896 q 1120 869 1093 896 q 1147 804 1147 842 l 1147 379 q 1125 256 1147 322 q 1063 133 1103 190 q 969 38 1024 76 q 851 0 915 0 q 735 36 788 0 q 647 122 683 72 z "},"X":{"ha":651,"x_min":3,"x_max":572,"o":"m 288 626 l 443 896 l 519 850 q 562 796 551 832 q 553 728 572 760 l 390 447 l 553 167 q 562 99 572 135 q 519 44 551 64 l 443 0 l 288 268 l 132 0 l 54 44 q 13 99 22 63 q 22 167 3 135 l 183 447 l 22 728 q 10 762 13 744 q 13 796 8 779 q 28 827 18 813 q 54 850 39 842 l 132 896 l 288 626 z "},"Y":{"ha":658,"x_min":1,"x_max":579,"o":"m 381 417 l 381 -4 l 290 -4 q 226 22 253 -4 q 200 86 200 49 l 200 417 l 21 726 q 12 794 1 758 q 54 850 22 831 l 133 896 l 290 622 l 447 896 l 526 850 q 569 794 558 831 q 560 726 579 758 q 470 571 515 647 q 381 417 425 494 z "},"Z":{"ha":699,"x_min":7,"x_max":599,"o":"m 256 181 l 599 181 l 599 89 q 572 24 599 51 q 507 -3 544 -3 l 7 -3 l 7 117 q 176 409 89 258 q 350 711 264 560 l 7 711 l 7 801 q 34 867 7 840 q 99 893 61 893 l 599 893 l 599 775 q 428 481 515 632 q 256 181 342 331 z "},"a":{"ha":796,"x_min":19,"x_max":733,"o":"m 511 51 q 369 3 450 3 l 251 3 q 167 19 207 3 q 95 63 126 35 q 44 128 64 90 q 21 210 25 165 l 19 210 l 19 249 q 42 334 22 294 q 92 403 61 374 q 165 449 124 432 q 251 467 206 467 l 422 467 l 422 486 q 407 522 422 507 q 369 538 392 538 l 251 538 q 214 522 229 538 q 199 486 199 507 l 199 463 l 19 463 l 19 486 q 35 569 19 531 l 35 571 l 36 572 q 38 576 36 574 l 40 582 q 41 584 40 583 q 42 586 42 585 q 43 589 43 588 q 44 592 43 590 l 47 596 l 50 601 q 51 603 51 603 q 53 606 51 604 l 53 607 q 56 610 56 610 l 56 611 q 57 613 57 613 q 58 615 57 614 q 62 619 61 618 q 65 624 63 621 l 69 629 q 72 633 69 631 q 75 638 75 636 l 79 642 l 81 643 l 83 646 l 88 650 l 90 653 l 92 654 l 96 658 q 100 661 97 658 q 103 664 103 664 l 104 665 q 107 668 107 668 l 108 668 l 113 672 q 117 675 114 672 l 122 678 q 126 681 125 681 l 126 682 q 131 685 128 682 l 136 688 q 138 688 138 688 q 140 689 139 689 l 140 690 q 146 693 143 690 q 148 694 147 693 q 150 694 149 694 l 156 697 q 158 699 157 699 q 161 700 160 699 q 163 701 163 700 q 165 701 164 701 l 167 703 l 171 703 l 172 704 q 174 705 174 704 q 176 706 175 706 l 182 707 l 186 708 l 188 710 q 193 711 192 710 q 199 713 197 711 l 200 713 l 203 713 l 206 714 l 208 714 l 210 714 q 215 715 213 715 l 217 715 q 221 717 219 715 l 222 717 l 226 717 l 228 717 l 233 717 q 239 718 236 718 l 240 718 l 244 718 l 246 718 l 251 718 l 369 718 q 459 700 417 718 q 533 650 501 682 q 583 576 565 618 q 601 486 601 533 l 601 235 l 601 233 l 601 232 q 629 189 604 201 q 653 182 640 182 l 733 182 l 733 3 l 653 3 l 649 3 l 647 3 l 642 3 l 636 3 l 631 3 l 629 4 l 624 4 q 618 6 621 4 l 613 6 q 610 6 611 6 q 608 7 610 7 l 607 7 q 603 8 604 7 q 601 8 603 8 q 599 9 600 8 q 596 10 597 10 q 593 10 594 10 q 590 11 592 11 q 588 12 589 11 q 585 13 586 13 l 583 13 q 579 14 582 14 l 579 15 q 575 17 576 15 l 572 17 q 569 18 571 18 l 568 19 q 564 21 565 19 l 560 22 l 554 25 l 551 26 l 549 28 l 546 29 l 544 29 l 542 32 l 536 35 l 532 38 l 531 38 q 528 39 529 39 q 526 40 528 39 q 524 42 525 42 q 522 43 524 42 l 521 44 q 518 46 519 46 l 518 47 q 515 49 515 49 q 511 51 514 50 m 422 286 l 251 286 q 214 271 229 286 q 199 235 199 256 l 199 233 q 214 197 199 213 q 251 182 229 182 l 369 182 q 407 197 392 182 q 422 235 422 213 l 422 286 z "},"b":{"ha":742,"x_min":-94,"x_max":635,"o":"m 40 792 q 13 836 40 821 q -12 843 1 843 l -94 843 l -94 1026 l -69 1026 l -7 1026 q 77 1008 38 1025 q 149 963 117 992 q 204 884 185 929 q 224 789 224 839 l 224 714 q 278 719 247 719 l 399 719 q 490 701 447 719 q 565 650 533 682 q 616 575 597 618 q 635 483 635 532 l 635 226 q 616 135 635 178 q 565 60 597 92 q 490 9 533 28 q 399 -10 447 -10 l 278 -10 q 185 9 229 -10 q 110 60 142 28 q 59 135 78 92 q 40 226 40 178 l 40 792 m 399 174 q 436 189 421 174 q 451 226 451 204 l 451 483 q 436 521 451 506 q 399 536 421 536 l 278 536 q 240 521 256 536 q 224 483 224 506 l 224 226 q 240 189 224 204 q 278 174 256 174 l 399 174 z "},"c":{"ha":800,"x_min":-3,"x_max":697,"o":"m 129 236 l 129 488 l 129 489 q 101 531 126 518 q 78 538 90 538 l -3 538 l -3 718 l 78 718 l 82 718 l 83 718 l 89 718 q 94 717 92 717 l 96 717 l 100 717 l 101 717 q 107 715 104 717 l 113 715 q 115 715 114 715 q 118 714 115 714 q 124 713 122 714 l 129 713 l 129 711 l 135 711 l 135 710 q 140 708 139 710 l 142 708 q 146 707 144 708 l 147 707 q 149 706 149 707 q 151 706 150 706 q 156 704 153 704 l 158 703 q 161 701 160 703 l 163 701 q 167 700 164 700 l 172 697 l 174 697 l 179 694 l 182 693 l 185 692 l 186 690 l 192 688 l 194 686 l 199 683 l 200 682 q 204 679 201 682 q 208 676 206 679 l 210 676 l 213 674 l 214 674 q 219 669 217 671 q 284 706 249 693 q 358 718 319 718 l 607 718 q 671 692 644 718 q 697 628 697 665 l 697 538 l 361 538 q 325 522 340 538 q 310 486 310 507 l 310 233 q 325 197 310 213 q 361 182 340 182 l 697 182 l 697 92 q 671 28 697 56 q 607 1 644 1 l 358 1 q 266 22 308 3 q 193 72 224 40 q 146 147 163 104 q 129 236 129 189 z "},"d":{"ha":781,"x_min":14,"x_max":744,"o":"m 610 483 l 610 226 q 591 134 610 178 q 540 58 572 90 q 464 8 507 26 q 372 -11 421 -11 l 251 -11 q 159 8 203 -11 q 83 58 115 26 q 33 134 51 90 q 14 226 14 178 l 14 483 q 33 575 14 532 q 83 651 51 618 q 159 702 115 683 q 251 721 203 721 l 372 721 q 425 714 397 721 l 425 790 q 445 884 425 839 q 501 963 465 929 q 504 967 501 964 q 506 968 506 968 q 508 969 507 968 l 513 974 l 515 975 q 519 978 518 976 q 524 981 521 979 l 524 982 q 526 983 525 982 q 528 983 526 983 l 528 985 q 530 986 529 986 q 532 988 531 986 l 533 988 q 536 990 533 988 l 538 992 l 542 993 l 546 996 l 551 999 l 553 1000 l 556 1001 l 561 1004 l 567 1006 l 569 1007 l 571 1008 q 573 1009 572 1008 q 575 1010 574 1010 l 576 1010 q 579 1011 579 1011 l 582 1013 q 584 1013 583 1013 q 586 1014 585 1014 q 588 1015 588 1014 q 592 1015 589 1015 l 593 1015 q 597 1017 594 1017 l 599 1018 q 603 1019 601 1018 l 604 1019 q 608 1021 607 1019 l 610 1021 q 614 1022 613 1021 l 615 1022 l 619 1022 l 621 1022 q 626 1024 622 1024 q 632 1025 631 1024 l 638 1025 l 639 1025 q 643 1026 642 1025 l 644 1026 l 650 1026 l 656 1026 l 663 1026 l 744 1026 l 744 843 l 663 843 q 638 836 649 843 q 610 793 610 819 l 610 792 l 610 790 l 610 483 m 251 174 l 372 174 q 410 189 394 174 q 425 226 425 204 l 425 483 q 410 521 425 506 q 372 536 394 536 l 251 536 q 214 521 229 536 q 199 483 199 506 l 199 226 q 214 189 199 204 q 251 174 229 174 z "},"e":{"ha":822,"x_min":14,"x_max":728,"o":"m 325 250 l 325 229 q 340 193 325 208 q 378 178 356 178 l 496 178 q 532 193 517 178 q 547 229 547 208 l 547 254 l 728 254 l 728 229 q 713 144 728 188 l 710 139 l 707 135 q 706 131 707 132 q 706 129 706 131 l 703 124 l 700 119 q 692 106 697 114 l 692 104 q 687 98 689 101 q 682 92 685 94 l 678 86 l 675 82 q 672 78 672 79 q 668 74 671 76 q 656 63 660 65 l 647 54 l 643 50 l 639 47 q 631 40 636 46 l 625 38 l 621 35 q 617 32 618 32 l 611 29 q 601 24 607 25 l 596 21 l 592 18 l 586 15 q 582 14 583 15 l 575 13 q 570 10 572 11 q 565 8 568 10 l 558 7 l 553 6 l 547 4 l 542 3 l 538 1 q 532 0 533 1 l 526 0 l 519 -1 l 514 -1 l 507 -1 l 501 -3 l 496 -3 l 378 -3 q 286 15 328 -3 q 215 65 244 33 q 167 138 185 96 q 146 228 149 179 l 146 229 l 146 482 l 146 485 q 118 526 143 514 q 93 533 107 533 l 14 533 l 14 714 l 93 714 l 100 714 l 101 714 l 106 714 q 111 713 108 713 l 113 713 l 117 713 l 118 713 q 122 711 121 713 l 124 711 l 129 711 q 131 710 131 711 q 133 710 132 710 l 135 710 q 140 708 138 710 l 146 708 l 146 707 l 151 707 l 151 706 l 156 706 l 157 704 q 161 703 160 704 l 164 703 q 166 702 165 703 q 168 701 167 701 q 172 700 169 700 l 175 699 q 178 697 176 699 l 179 697 q 183 696 181 696 l 188 693 l 193 692 l 194 690 l 201 688 l 206 685 l 207 683 l 211 682 l 213 681 l 217 678 q 219 676 218 676 q 221 675 219 676 q 225 672 222 675 q 227 671 226 671 q 229 669 228 671 q 233 667 232 668 q 236 665 233 667 q 302 701 267 689 q 378 714 338 714 l 496 714 q 585 696 543 714 q 660 646 628 678 q 710 572 692 614 q 728 482 728 529 q 710 392 728 433 q 660 318 692 350 q 585 268 628 286 q 496 250 543 250 l 325 250 m 325 431 l 496 431 q 532 446 517 431 q 547 482 547 461 q 532 518 547 503 q 496 533 517 533 l 378 533 q 340 518 356 533 q 325 482 325 503 l 325 431 z "},"f":{"ha":593,"x_min":-61,"x_max":547,"o":"m 257 728 l 432 728 l 432 553 l 257 553 l 257 -4 l 165 -4 q 101 23 128 -4 q 74 89 74 50 l 74 796 l 74 797 l 74 799 q 46 843 71 828 q 21 850 32 850 l -61 850 l -61 1033 l 21 1033 l 26 1033 l 28 1033 l 33 1033 l 39 1033 q 44 1032 40 1032 l 46 1032 l 51 1032 q 57 1031 53 1031 q 63 1029 60 1031 l 68 1029 q 74 1028 71 1028 l 75 1028 q 79 1026 76 1026 l 81 1026 q 85 1025 82 1025 l 86 1024 q 90 1022 89 1024 l 92 1022 q 94 1022 93 1022 q 96 1021 94 1021 l 97 1021 q 99 1020 99 1021 q 101 1019 100 1019 l 103 1018 q 107 1017 106 1018 l 108 1017 q 110 1016 110 1017 q 113 1015 111 1015 l 114 1014 l 119 1013 l 122 1010 l 128 1008 l 131 1007 l 132 1006 l 138 1003 l 142 1000 l 146 997 q 148 996 147 996 q 150 994 149 996 l 151 994 q 154 992 151 994 l 156 992 q 160 989 158 989 l 160 988 q 163 985 161 986 q 165 983 164 985 q 310 1033 231 1033 l 456 1033 q 520 1006 493 1033 q 547 942 547 979 l 547 850 l 310 850 q 273 834 289 850 q 257 797 257 818 l 257 728 z "},"g":{"ha":819,"x_min":-1,"x_max":729,"o":"m 410 -11 q 357 -17 388 -17 l 236 -17 q 144 2 188 -17 q 68 53 100 21 q 17 128 36 85 q -1 219 -1 171 l -1 478 q 17 569 -1 526 q 68 644 36 613 q 144 695 100 676 q 236 714 188 714 l 357 714 q 434 701 397 714 q 501 664 471 689 q 508 669 506 668 q 513 672 510 669 q 515 674 514 674 q 517 675 515 674 l 518 675 q 521 678 518 675 l 522 679 l 528 682 l 531 683 l 536 686 l 538 688 l 540 689 l 543 690 l 549 693 l 554 694 l 556 696 q 558 697 557 696 q 560 697 558 697 l 561 699 q 564 700 564 699 l 567 700 q 569 701 568 700 q 571 701 569 701 q 576 703 572 703 l 578 704 q 582 706 581 704 l 583 706 q 585 706 585 706 q 588 707 586 707 l 589 707 q 591 708 590 707 q 593 708 592 708 l 594 708 q 599 710 597 708 l 600 710 q 604 711 603 710 l 606 711 l 611 711 q 614 712 613 711 q 617 713 615 713 l 622 713 l 624 713 q 629 714 625 714 l 633 714 l 635 714 l 642 714 l 640 714 l 647 714 l 729 714 l 729 531 l 647 531 q 622 524 633 531 q 594 481 594 510 l 594 479 l 594 478 l 594 -86 q 576 -178 594 -135 q 524 -253 557 -221 q 449 -303 492 -285 q 357 -322 406 -322 l 236 -322 q 144 -303 188 -322 q 68 -253 100 -285 q 17 -178 36 -221 q -1 -86 -1 -135 l -1 -61 l 183 -61 l 183 -86 q 199 -124 183 -108 q 236 -139 214 -139 l 357 -139 q 394 -124 379 -139 q 410 -86 410 -108 l 410 -11 m 410 478 q 394 515 410 499 q 357 531 379 531 l 236 531 q 199 515 214 531 q 183 478 183 499 l 183 219 q 199 183 183 199 q 236 167 214 167 l 357 167 q 394 183 379 167 q 410 219 410 199 l 410 478 z "},"h":{"ha":738,"x_min":-78,"x_max":650,"o":"m 238 714 q 265 719 251 718 q 293 721 278 721 l 415 721 q 506 702 464 721 q 581 651 549 683 q 631 577 613 619 q 650 486 650 535 l 650 82 q 624 18 650 44 q 560 -8 597 -8 l 471 -8 l 471 14 q 470 249 471 132 q 469 486 469 367 q 453 525 469 508 q 415 542 438 542 l 293 542 q 253 525 269 542 q 238 486 238 508 l 238 14 l 238 -8 l 147 -8 q 83 18 110 -8 q 57 82 57 44 l 57 793 q 28 842 57 826 q 1 849 14 849 l -78 849 l -78 1028 l -56 1028 q 20 1027 -15 1028 q 94 1010 56 1026 q 199 923 160 982 q 238 793 238 864 l 238 714 z "},"i":{"ha":422,"x_min":3,"x_max":319,"o":"m 232 -10 l 226 -10 l 219 -10 q 214 -8 218 -8 l 208 -8 q 206 -8 207 -8 q 203 -7 204 -7 q 197 -6 199 -7 l 196 -6 l 192 -6 l 190 -6 q 186 -4 189 -4 l 185 -4 q 181 -3 183 -3 l 179 -3 q 174 -1 178 -1 l 174 0 l 168 0 l 167 1 q 163 3 164 1 q 160 3 161 3 q 158 4 160 4 l 156 6 q 153 7 154 6 l 151 7 q 149 8 150 7 q 147 8 149 8 l 146 10 l 142 11 l 138 13 l 132 15 l 128 18 l 122 21 l 119 22 l 117 24 l 113 26 l 110 29 l 108 29 q 106 31 107 31 q 104 32 106 31 q 100 35 101 35 q 96 38 97 38 q 92 42 94 39 l 89 43 l 85 47 q 82 50 85 47 l 81 50 q 79 52 79 51 q 78 54 79 53 q 22 133 42 88 q 3 226 3 178 l 3 626 q 29 692 3 665 q 94 718 56 718 l 186 718 l 186 226 l 186 225 l 186 224 q 213 181 186 194 q 239 174 226 174 l 319 174 l 319 -10 l 239 -10 l 232 -10 m 128 957 q 169 940 151 957 q 186 899 186 922 l 186 831 q 169 790 186 807 q 128 774 151 774 l 60 774 q 19 790 36 774 q 3 831 3 807 l 3 899 q 19 940 3 922 q 60 957 36 957 l 128 957 z "},"j":{"ha":321,"x_min":-112,"x_max":210,"o":"m -24 -332 l -29 -332 l -112 -332 l -112 -147 l -29 -147 q -4 -140 -18 -147 q 24 -96 21 -125 l 24 -94 l 24 -93 l 24 714 l 117 714 q 183 687 156 714 q 210 621 210 660 l 210 -93 q 190 -188 210 -143 q 133 -268 169 -233 q 129 -271 131 -271 l 129 -272 q 125 -275 128 -272 l 121 -279 l 119 -281 q 115 -283 117 -282 q 110 -287 113 -285 q 107 -290 110 -287 l 106 -290 q 103 -292 104 -292 q 101 -293 103 -292 q 99 -294 100 -294 q 97 -296 99 -294 l 93 -299 l 90 -300 l 86 -303 l 82 -304 l 81 -306 l 78 -307 l 75 -308 l 69 -311 l 67 -311 l 63 -314 q 60 -315 61 -314 q 58 -315 60 -315 l 57 -317 q 53 -318 54 -317 l 51 -318 q 49 -319 50 -318 q 47 -319 49 -319 q 42 -321 44 -321 l 40 -322 q 36 -324 38 -322 l 35 -324 q 33 -324 33 -324 q 31 -325 32 -325 l 29 -325 q 27 -326 28 -325 q 25 -326 26 -326 l 24 -326 q 22 -327 22 -326 q 18 -328 21 -328 q 13 -329 14 -328 l 7 -329 l 6 -329 q 1 -331 4 -331 l 0 -331 l -6 -331 l -6 -332 l -11 -332 l -17 -332 l -18 -332 l -24 -332 m 151 956 q 192 938 175 956 q 210 897 210 921 l 210 828 q 192 787 210 804 q 151 769 175 769 l 82 769 q 41 787 58 769 q 24 828 24 804 l 24 897 q 41 938 24 921 q 82 956 58 956 l 151 956 z "},"k":{"ha":763,"x_min":-72,"x_max":683,"o":"m 247 136 l 247 -10 l 156 -10 q 90 17 117 -10 q 63 82 63 43 l 63 790 l 63 793 q 36 836 63 822 q 10 843 22 843 l -72 843 l -72 1026 l 10 1026 l 17 1026 l 22 1026 l 29 1026 q 35 1025 32 1026 l 40 1025 q 44 1024 43 1025 q 46 1024 44 1024 l 51 1024 l 53 1024 q 57 1022 54 1022 l 58 1022 q 63 1021 60 1021 l 64 1021 q 66 1020 65 1021 q 68 1019 67 1019 l 69 1019 q 75 1018 71 1018 q 79 1017 76 1017 l 81 1015 q 86 1014 85 1015 q 88 1013 88 1014 q 90 1013 89 1013 l 93 1013 q 96 1011 93 1011 l 97 1010 q 99 1009 99 1010 q 101 1008 100 1008 l 103 1007 l 107 1006 l 111 1004 l 117 1001 l 119 1000 l 122 999 l 126 996 l 132 993 l 135 992 l 136 990 q 138 989 138 989 q 140 988 139 989 q 142 986 142 986 q 144 985 143 986 q 149 982 147 982 q 153 978 151 979 q 157 975 154 978 l 161 971 l 164 969 q 168 967 165 969 q 171 963 171 964 q 227 884 207 929 q 247 790 247 839 l 247 439 l 456 721 l 682 721 l 410 356 l 683 -10 l 456 -10 l 297 204 l 247 136 z "},"l":{"ha":344,"x_min":-87,"x_max":232,"o":"m 1 1038 l 7 1038 l 14 1038 l 13 1038 q 18 1036 17 1038 l 19 1036 l 25 1036 q 28 1035 26 1036 q 31 1035 29 1035 l 36 1035 l 38 1035 q 42 1033 39 1033 l 43 1033 q 47 1032 44 1032 l 49 1032 q 51 1031 50 1032 q 53 1031 51 1031 l 54 1031 q 58 1029 56 1029 l 60 1029 q 64 1028 61 1028 l 65 1026 q 71 1025 69 1026 q 73 1024 72 1025 q 75 1024 74 1024 l 76 1024 q 81 1022 78 1022 l 82 1021 q 84 1020 83 1021 q 86 1019 85 1019 l 88 1018 l 93 1017 l 96 1015 l 101 1013 l 104 1011 l 106 1010 l 111 1007 l 117 1004 l 119 1003 l 121 1001 l 124 999 l 125 999 q 127 997 126 997 q 129 996 128 997 q 133 993 132 993 q 138 990 136 990 q 142 986 139 989 l 146 982 l 149 981 q 151 978 151 981 l 153 978 q 154 976 154 976 q 156 974 154 975 q 212 895 192 940 q 232 801 232 850 l 232 1 l 139 1 q 74 28 101 1 q 47 93 47 54 l 47 800 l 47 801 l 47 804 q 19 847 44 835 q -6 854 8 854 l -87 854 l -87 1038 l -6 1038 l 0 1038 l 1 1038 z "},"m":{"ha":1217,"x_min":11,"x_max":1131,"o":"m 232 668 q 375 718 294 718 l 494 718 q 638 668 572 718 q 779 718 700 718 l 900 718 q 990 700 947 718 q 1063 650 1032 682 q 1113 576 1094 618 q 1131 486 1131 533 l 1131 90 q 1104 28 1131 54 q 1042 3 1078 3 l 954 3 l 954 24 l 954 486 q 938 525 954 510 q 900 540 922 540 l 779 540 q 741 525 757 540 q 725 486 725 510 l 725 24 l 725 3 l 703 3 l 571 3 l 549 3 l 549 24 l 549 486 q 533 525 549 510 q 494 540 518 540 q 435 541 464 542 q 375 540 406 540 q 337 525 353 540 q 321 486 321 510 l 321 24 l 321 3 l 232 3 q 170 28 196 3 q 144 90 144 54 l 144 486 q 115 535 144 519 q 89 540 104 540 l 11 540 l 11 718 l 33 718 q 67 718 50 718 q 101 717 85 718 q 232 668 178 713 z "},"n":{"ha":796,"x_min":-7,"x_max":707,"o":"m 215 667 q 281 703 246 690 q 357 715 317 715 l 475 715 q 565 697 522 715 q 639 647 607 679 q 689 573 671 615 q 707 483 707 531 l 707 0 l 617 0 q 553 26 581 0 q 526 89 526 53 l 526 483 q 511 519 526 504 q 475 535 496 535 l 357 535 q 319 519 335 535 q 304 483 304 504 l 304 0 l 215 0 q 151 26 178 0 q 125 89 125 53 l 125 485 l 125 486 q 97 528 122 515 q 72 535 86 535 l -7 535 l -7 715 l 72 715 l 78 715 l 79 715 l 85 715 q 90 714 89 715 l 96 714 l 97 714 l 101 714 l 103 714 q 108 713 104 713 q 113 711 111 713 l 114 711 l 118 711 l 119 710 l 125 710 q 131 708 126 708 q 136 707 132 707 l 136 706 l 142 706 l 143 704 q 147 703 146 704 q 149 702 149 703 q 151 701 150 701 l 153 700 q 157 699 156 700 l 158 699 q 160 698 160 699 q 163 697 161 697 l 167 694 l 169 694 l 174 692 l 178 690 l 179 689 l 182 688 l 186 685 l 190 683 l 194 681 l 196 679 q 198 678 197 679 q 200 678 199 678 l 200 676 q 204 674 201 676 q 206 672 206 672 q 208 671 207 672 q 212 669 211 669 q 215 667 213 668 z "},"o":{"ha":779,"x_min":-22,"x_max":692,"o":"m 460 714 q 549 696 507 714 q 623 646 592 678 q 673 572 654 614 q 692 482 692 529 l 692 229 q 673 140 692 182 q 623 66 654 97 q 549 16 592 35 q 460 -3 507 -3 l 340 -3 q 250 16 292 -3 q 176 66 208 35 q 126 140 144 97 q 108 229 108 182 l 108 482 l 108 493 q 82 528 104 517 q 58 535 71 535 l -22 535 l -22 714 l 58 714 l 64 714 l 71 714 l 69 714 q 75 713 72 713 l 76 713 l 81 713 l 82 713 q 88 711 85 713 l 93 711 q 95 710 94 711 q 99 710 96 710 q 104 708 103 710 l 110 708 l 110 707 l 115 707 l 115 706 l 121 706 l 121 704 q 126 703 125 704 l 128 703 q 130 702 129 703 q 132 701 131 701 q 134 701 133 701 q 136 700 135 700 l 138 699 q 142 697 140 699 l 143 697 q 145 697 144 697 q 147 696 146 696 l 149 694 l 154 693 l 158 690 l 161 689 l 167 686 l 171 683 l 174 682 l 179 679 l 181 678 q 183 676 183 676 l 185 675 q 187 674 186 675 q 189 674 188 674 l 189 672 q 191 671 190 671 q 193 669 192 671 q 196 667 194 668 q 199 665 197 667 q 264 701 228 689 q 340 714 300 714 l 460 714 m 460 178 q 496 193 481 178 q 511 229 511 208 l 511 482 q 496 518 511 503 q 460 533 481 533 l 340 533 q 304 518 319 533 q 289 482 289 503 l 289 229 q 304 193 289 208 q 340 178 319 178 l 460 178 z "},"p":{"ha":806,"x_min":-18,"x_max":713,"o":"m 301 -7 l 301 -319 l 208 -319 q 144 -292 171 -319 q 117 -226 117 -265 l 117 481 l 117 482 l 117 483 q 89 528 114 513 q 64 535 78 535 l -18 535 l -18 718 l 64 718 l 69 718 l 71 718 l 76 718 l 82 718 q 88 717 85 717 l 89 717 l 94 717 q 97 716 96 717 q 100 715 99 715 q 106 714 104 715 l 107 714 l 111 714 l 113 714 q 117 713 114 713 l 118 713 q 122 711 119 711 l 124 711 q 128 710 125 710 l 129 708 l 133 708 l 135 707 q 139 706 138 707 l 140 706 q 142 705 142 706 q 144 704 143 704 l 146 703 q 150 701 149 703 l 151 701 q 153 701 153 701 q 156 700 154 700 l 161 697 l 165 696 l 168 694 l 171 693 l 175 690 l 181 688 l 183 686 l 189 683 l 190 682 l 193 679 l 194 679 q 197 678 196 678 q 199 676 197 678 q 203 674 201 674 l 203 672 q 208 668 206 671 q 354 718 274 718 l 475 718 q 567 699 524 718 q 642 649 610 681 q 694 574 675 617 q 713 482 713 531 l 713 224 q 694 132 713 175 q 642 57 675 89 q 567 6 610 25 q 475 -12 524 -12 l 354 -12 q 301 -7 324 -12 m 475 171 q 513 187 497 171 q 528 224 528 203 l 528 482 q 513 519 528 503 q 475 535 497 535 l 354 535 q 317 519 332 535 q 301 482 301 503 l 301 224 q 317 187 301 203 q 354 171 332 171 l 475 171 z "},"q":{"ha":846,"x_min":11,"x_max":742,"o":"m 422 -4 q 369 -10 400 -10 l 249 -10 q 156 9 200 -10 q 81 60 113 28 q 30 135 49 92 q 11 226 11 178 l 11 485 q 30 576 11 533 q 81 651 49 619 q 156 702 113 683 q 249 721 200 721 l 369 721 q 514 671 451 721 q 517 673 517 672 q 521 675 518 674 l 521 676 q 525 679 522 676 q 527 681 526 681 q 529 682 528 681 l 531 682 q 533 685 531 682 l 535 686 l 540 689 l 543 690 l 549 693 l 550 694 l 553 696 l 556 697 l 561 700 l 564 700 l 568 703 q 570 703 569 703 q 572 704 571 704 l 574 704 q 576 706 576 706 l 579 707 q 581 708 581 707 q 583 708 582 708 q 589 710 585 710 l 590 711 l 594 711 l 596 713 q 600 714 599 713 l 601 714 q 606 715 604 714 l 607 715 q 611 717 610 715 l 613 717 l 617 717 l 618 717 q 624 718 619 718 q 626 719 625 718 q 629 719 628 719 l 635 719 l 636 719 q 642 721 639 719 l 646 721 l 647 721 l 654 721 l 653 721 l 660 721 l 742 721 l 742 538 l 660 538 q 635 531 646 538 q 607 488 607 514 l 607 486 l 607 485 l 607 -224 q 580 -290 607 -262 q 514 -317 553 -317 l 422 -317 l 422 -4 m 422 485 q 407 522 422 506 q 369 538 392 538 l 249 538 q 211 522 226 538 q 196 485 196 506 l 196 226 q 211 190 196 206 q 249 174 226 174 l 369 174 q 407 190 392 174 q 422 226 422 206 l 422 485 z "},"r":{"ha":660,"x_min":-33,"x_max":561,"o":"m 54 715 l 58 715 l 64 715 l 65 715 q 69 714 67 714 l 71 714 l 75 714 l 76 714 q 78 713 78 714 q 81 713 79 713 l 82 713 l 86 713 l 88 711 l 92 711 l 93 711 q 99 710 94 710 q 103 708 100 708 l 104 708 q 108 707 106 707 l 110 707 q 114 706 111 706 l 115 704 q 119 703 118 704 l 121 703 q 123 702 122 703 q 125 701 124 701 l 126 701 q 131 700 128 700 l 132 699 q 134 698 133 699 q 136 697 135 697 l 138 697 l 140 696 l 146 693 l 147 692 l 153 689 l 156 688 l 160 685 l 163 683 l 169 679 q 172 678 172 678 l 174 676 q 176 676 175 676 q 178 675 176 675 l 178 674 q 182 671 179 674 q 188 667 185 669 q 329 715 249 715 l 471 715 q 535 689 508 715 q 561 625 561 663 l 561 535 l 329 535 q 293 519 308 535 q 278 483 278 504 l 278 0 l 188 0 q 124 26 151 0 q 97 90 97 53 l 97 483 l 97 485 l 97 486 q 71 529 97 515 q 46 535 61 535 l -33 535 l -33 715 l 46 715 l 53 715 l 54 715 z "},"s":{"ha":760,"x_min":-43,"x_max":671,"o":"m 439 717 q 528 699 486 717 q 602 649 571 681 q 652 574 633 617 q 671 485 671 532 l 671 461 l 490 461 l 490 485 q 475 521 490 506 q 439 536 460 536 l 319 536 q 283 521 299 536 q 268 485 268 506 q 271 472 268 475 q 295 465 278 465 q 319 465 313 465 l 439 465 q 528 447 486 465 q 602 397 571 429 q 652 323 633 365 q 671 233 671 281 q 652 143 671 185 q 602 69 633 101 q 528 19 571 38 q 439 1 486 1 l 319 1 q 229 19 271 1 q 156 69 188 38 q 106 143 124 101 q 88 233 88 185 l 88 257 l 268 257 l 268 233 q 283 197 268 211 q 319 182 299 182 l 439 182 q 475 197 460 182 q 490 233 490 211 q 475 269 490 254 q 439 285 460 285 l 319 285 q 232 297 274 285 q 158 335 190 310 q 106 397 125 360 q 88 485 88 435 l 88 497 q 61 531 83 519 q 38 538 50 538 l -43 538 l -43 717 l 38 717 l 43 717 l 50 717 l 49 717 l 54 717 l 56 717 q 60 715 57 715 l 61 715 l 67 715 q 69 715 68 715 q 72 714 71 714 l 78 714 l 78 713 l 83 713 q 89 711 85 711 q 94 710 90 710 q 97 709 96 710 q 100 708 99 708 q 106 707 101 707 l 107 706 q 111 704 110 706 q 113 703 113 704 q 115 703 114 703 l 117 703 q 121 701 118 701 l 122 700 q 126 699 125 700 l 128 699 l 133 696 l 138 693 l 140 692 l 146 689 l 150 688 l 153 685 l 158 682 l 160 682 l 163 679 l 164 679 q 168 676 167 676 l 168 675 q 170 674 169 675 q 172 674 171 674 l 172 672 q 175 670 174 671 q 178 668 176 669 q 243 704 207 692 q 319 717 279 717 l 439 717 z "},"t":{"ha":485,"x_min":15,"x_max":396,"o":"m 199 722 q 224 726 211 725 q 250 728 238 728 l 258 728 l 282 728 l 283 728 l 307 728 l 315 728 l 339 728 l 339 544 l 315 544 l 307 544 l 283 544 l 282 544 l 258 544 l 250 544 q 214 529 229 544 q 199 493 199 514 l 199 238 q 214 200 199 215 q 250 185 229 185 l 371 185 l 396 185 l 396 1 l 371 1 l 250 1 q 159 20 201 1 q 85 71 117 39 q 34 146 53 103 q 15 238 15 189 l 15 807 q 42 871 15 844 q 107 897 69 897 l 199 897 l 199 722 z "},"u":{"ha":786,"x_min":8,"x_max":722,"o":"m 636 3 l 631 3 l 625 3 l 619 3 l 618 3 q 616 3 617 3 q 613 4 615 4 l 607 4 q 601 6 606 6 q 599 6 600 6 q 596 7 597 7 q 590 8 592 7 q 585 10 586 8 q 579 11 581 10 l 578 11 q 576 12 576 11 q 574 13 575 13 l 572 13 q 568 14 571 14 q 564 15 567 15 l 561 17 q 558 18 560 18 l 557 18 q 553 19 556 19 l 551 21 l 549 22 l 543 25 l 538 26 l 533 29 l 528 32 l 525 33 l 524 35 l 519 38 q 517 39 518 39 q 515 40 517 39 q 513 42 514 42 q 511 43 513 42 l 510 43 q 507 46 510 46 q 500 51 504 47 q 358 1 438 1 l 240 1 q 150 20 192 1 q 76 70 108 39 q 26 144 44 101 q 8 233 8 186 l 8 628 q 35 692 8 665 q 99 718 61 718 l 188 718 l 188 233 q 203 197 188 213 q 240 182 218 182 l 358 182 q 396 197 381 182 q 411 233 411 213 l 411 718 l 500 718 q 564 692 538 718 q 590 628 590 665 l 590 235 l 590 233 l 590 232 q 618 189 593 201 q 642 182 629 182 l 722 182 l 722 1 l 642 1 l 636 1 l 636 3 z "},"v":{"ha":810,"x_min":-4,"x_max":710,"o":"m 307 374 q 316 318 307 347 q 338 265 325 289 q 351 243 342 257 q 372 215 361 229 q 396 190 383 200 q 418 179 408 179 q 441 191 429 181 q 465 215 453 201 q 485 243 476 229 q 499 265 494 257 q 519 318 510 289 q 529 374 529 347 l 529 715 l 619 715 q 683 689 656 715 q 710 625 710 663 l 710 374 q 688 251 710 317 q 626 130 665 186 q 534 36 588 74 q 418 -1 481 -1 q 301 36 354 -1 q 208 130 247 74 q 148 251 169 186 q 126 374 126 317 l 126 494 q 100 529 122 518 q 76 536 89 536 l -4 536 l -4 715 l 76 715 l 82 715 l 89 715 l 88 715 q 93 714 90 714 l 94 714 l 99 714 l 100 714 q 106 713 103 714 l 111 713 q 113 712 113 713 q 117 711 114 711 q 122 710 121 711 l 128 710 l 128 708 l 133 708 l 133 707 l 139 707 l 139 706 q 144 704 143 706 l 146 704 q 148 703 147 704 q 150 703 149 703 q 152 702 151 703 q 154 701 153 701 l 156 700 q 160 699 158 700 l 161 699 q 163 698 163 699 q 165 697 164 697 l 167 696 l 172 694 l 176 692 l 179 690 l 185 688 l 189 685 l 192 683 l 197 681 l 199 679 q 201 678 201 678 l 203 676 q 205 676 204 676 q 207 675 206 675 l 207 674 q 209 672 208 672 q 211 671 210 672 q 219 664 214 669 l 222 663 l 224 661 l 225 660 q 229 657 228 657 l 229 656 q 233 653 231 656 q 288 577 268 621 q 307 485 307 533 l 307 374 z "},"w":{"ha":1182,"x_min":-33,"x_max":1081,"o":"m 588 124 q 500 39 551 75 q 386 3 449 3 q 270 40 324 3 q 178 134 217 78 q 117 256 139 190 q 96 378 96 321 l 96 504 q 71 533 90 521 q 46 539 61 539 l -33 539 l -33 718 l 46 718 l 51 718 l 53 718 l 58 718 l 64 718 q 67 717 67 718 q 69 717 68 717 l 71 717 l 76 717 q 78 716 78 717 q 81 715 79 715 l 82 715 l 86 715 l 88 715 q 92 714 89 714 l 93 714 q 95 713 94 714 q 97 713 96 713 l 99 713 q 101 712 100 713 q 103 711 101 711 l 104 711 q 106 710 106 711 q 108 710 107 710 l 110 710 q 114 708 111 708 l 115 707 q 119 706 118 707 l 121 706 q 125 704 124 706 l 126 704 q 131 703 128 703 l 132 701 q 135 700 133 701 l 138 700 l 142 697 l 147 694 l 150 693 l 154 692 l 160 689 l 163 686 l 168 683 q 170 682 169 682 q 172 681 171 682 q 174 679 174 679 q 176 678 175 679 l 178 676 q 181 675 181 675 l 182 674 q 186 671 185 672 q 190 668 188 669 l 192 667 l 194 664 l 196 663 q 200 660 197 663 q 203 656 203 657 q 258 580 239 624 q 276 488 276 536 l 276 357 q 288 311 279 333 q 306 269 296 289 q 319 247 310 261 q 340 219 329 233 q 364 194 351 204 q 386 183 376 183 l 388 183 q 410 195 399 185 q 433 219 422 206 q 453 246 444 232 q 467 269 463 260 q 488 322 479 293 q 497 378 497 350 l 497 718 l 678 718 l 678 378 q 688 322 678 350 q 708 269 697 293 q 722 247 713 261 q 743 219 732 233 q 767 194 754 204 q 789 183 779 183 l 790 183 q 813 195 801 185 q 836 219 825 206 q 856 246 847 232 q 869 269 865 260 q 891 322 882 293 q 900 378 900 350 l 900 718 l 990 718 q 1054 692 1028 718 q 1081 628 1081 665 l 1081 378 q 1058 256 1081 321 q 997 134 1036 190 q 905 40 958 78 q 789 3 851 3 q 675 39 726 3 q 588 124 624 75 z "},"x":{"ha":554,"x_min":1,"x_max":476,"o":"m 138 347 l 21 550 q 11 617 1 582 q 53 671 21 651 l 129 714 l 239 524 l 349 714 l 425 669 q 467 617 457 651 q 457 550 476 582 l 340 347 l 447 163 q 457 96 467 131 q 415 42 447 61 l 339 -1 l 239 172 l 139 -1 l 63 42 q 22 96 31 61 q 31 163 13 131 l 138 347 z "},"y":{"ha":693,"x_min":7,"x_max":624,"o":"m 211 233 l 26 553 q 17 621 7 585 q 60 676 28 657 l 138 721 l 315 414 l 493 722 l 571 678 q 613 622 603 658 q 604 554 624 586 q 381 167 492 360 q 157 -219 269 -25 l 144 -240 l 67 -194 q 41 -172 51 -186 q 26 -140 31 -157 q 23 -106 21 -124 q 35 -72 25 -89 l 211 233 z "},"z":{"ha":588,"x_min":33,"x_max":481,"o":"m 261 183 l 481 183 l 481 93 q 458 30 481 57 q 399 3 435 3 l 33 3 l 33 147 l 258 538 l 33 538 l 33 628 q 55 690 33 663 q 113 718 76 718 l 481 718 l 481 564 l 261 183 z "},"C":{"ha":838,"x_min":8,"x_max":733,"o":"m 233 844 q 310 883 268 871 l 311 885 q 315 886 314 885 l 317 886 q 321 888 319 886 l 326 888 l 326 889 q 332 890 329 889 q 338 890 335 890 l 343 892 l 349 892 l 351 892 q 356 893 353 893 l 357 893 l 363 893 l 368 893 l 369 893 l 374 893 l 378 893 l 642 893 q 706 867 679 893 q 733 803 733 840 l 733 711 l 378 711 q 345 700 360 711 q 326 671 331 689 l 326 669 l 326 668 q 325 667 325 667 l 325 665 l 325 664 l 325 663 l 325 661 l 325 660 l 325 658 l 325 233 q 340 196 325 211 q 378 181 356 181 l 733 181 l 733 89 q 706 25 733 51 q 642 -1 679 -1 l 378 -1 q 286 17 329 -1 q 211 68 243 36 q 160 142 179 100 q 142 233 142 185 l 142 658 q 127 696 142 681 q 90 711 113 711 l 8 711 l 8 893 l 90 893 q 166 881 129 893 q 233 844 203 868 z "},"A":{"ha":836,"x_min":8,"x_max":733,"o":"m 550 356 l 325 356 l 325 0 l 233 0 q 169 26 196 0 q 142 90 142 53 l 142 660 q 127 697 142 682 q 90 713 113 713 l 8 713 l 8 894 l 90 894 q 166 882 129 894 q 233 846 203 869 q 378 894 297 894 l 642 894 q 706 868 679 894 q 733 804 733 842 l 733 90 q 706 26 733 53 q 642 0 679 0 l 550 0 l 550 356 m 325 539 l 550 539 l 550 713 l 378 713 q 340 697 356 713 q 325 660 325 682 l 325 539 z "},"B":{"ha":806,"x_min":8,"x_max":733,"o":"m 233 851 q 378 900 297 900 l 497 900 q 589 881 546 900 q 664 831 632 863 q 715 756 696 799 q 733 665 733 714 l 733 597 q 683 453 733 518 q 733 310 733 390 l 733 240 q 715 149 733 192 q 664 75 696 107 q 589 24 632 43 q 497 6 546 6 l 286 6 q 231 17 257 6 q 184 47 204 28 q 153 93 164 67 q 142 149 142 119 l 142 665 q 127 703 142 688 q 90 718 113 718 l 8 718 l 8 900 l 90 900 q 166 888 129 900 q 233 851 203 875 m 325 544 l 497 544 q 535 560 519 544 q 550 597 550 575 l 550 665 q 535 703 550 688 q 497 718 519 718 l 378 718 q 340 703 356 718 q 325 665 325 688 l 325 544 m 325 361 l 325 188 l 497 188 q 535 203 519 188 q 550 240 550 218 l 550 310 q 535 346 550 331 q 497 361 519 361 l 325 361 z "}}}
